<svg width="216" height="32" viewBox="0 0 216 32" fill="none" xmlns="http://www.w3.org/2000/svg">
<path d="M16.4062 0C13.2417 -3.77363e-08 10.1483 0.938383 7.51713 2.69649C4.88594 4.45459 2.83518 6.95345 1.62418 9.87706C0.413176 12.8007 0.096322 16.0177 0.713685 19.1214C1.33105 22.2251 2.8549 25.0761 5.09254 27.3137C7.33018 29.5513 10.1811 31.0752 13.2848 31.6926C16.3885 32.3099 19.6056 31.9931 22.5292 30.7821C25.4528 29.5711 27.9517 27.5203 29.7098 24.8891C31.4679 22.2579 32.4062 19.1645 32.4062 16L24.4062 16C24.4062 17.5823 23.9371 19.129 23.058 20.4446C22.179 21.7602 20.9295 22.7855 19.4677 23.391C18.0059 23.9965 16.3974 24.155 14.8455 23.8463C13.2937 23.5376 11.8682 22.7757 10.7494 21.6569C9.63057 20.538 8.86865 19.1126 8.55997 17.5607C8.25129 16.0089 8.40971 14.4003 9.01521 12.9385C9.62072 11.4767 10.6461 10.2273 11.9617 9.34824C13.2773 8.46919 14.824 8 16.4062 8V0Z" fill="white"/>
<path d="M16.4062 0C14.3051 -2.5056e-08 12.2245 0.413852 10.2833 1.21793C8.3421 2.022 6.57828 3.20055 5.09254 4.68629C3.6068 6.17203 2.42825 7.93586 1.62418 9.87707C0.820102 11.8183 0.40625 13.8989 0.40625 16H8.40625C8.40625 14.9494 8.61318 13.9091 9.01521 12.9385C9.41725 11.9679 10.0065 11.086 10.7494 10.3431C11.4923 9.60028 12.3742 9.011 13.3448 8.60896C14.3154 8.20693 15.3557 8 16.4062 8V0Z" fill="#5CE1E6"/>
<circle cx="16.4062" cy="16" r="5" fill="#5CE1E6"/>
<path d="M21.4062 16C21.4062 15.3434 21.2769 14.6932 21.0256 14.0866C20.7744 13.48 20.4061 12.9288 19.9418 12.4645C19.4775 12.0002 18.9263 11.6319 18.3197 11.3806C17.713 11.1293 17.0629 11 16.4062 11C15.7496 11 15.0995 11.1293 14.4928 11.3806C13.8862 11.6319 13.335 12.0002 12.8707 12.4645C12.4064 12.9288 12.0381 13.48 11.7869 14.0866C11.5356 14.6932 11.4062 15.3434 11.4063 16L16.4062 16H21.4062Z" fill="white"/>
<path d="M40.1683 12.47V15.62H44.3983V17.618H40.1683V20.948H44.9383V23H37.6483V10.418H44.9383V12.47H40.1683ZM52.7363 23L50.6843 19.904L48.8663 23H46.1663L49.4243 17.996L46.1303 13.028H48.9743L51.0083 16.106L52.8443 13.028H55.5443L52.2683 17.996L55.5803 23H52.7363ZM61.377 23.162C60.417 23.162 59.553 22.952 58.785 22.532C58.017 22.1 57.411 21.494 56.967 20.714C56.535 19.934 56.319 19.034 56.319 18.014C56.319 16.994 56.541 16.094 56.985 15.314C57.441 14.534 58.059 13.934 58.839 13.514C59.619 13.082 60.489 12.866 61.449 12.866C62.409 12.866 63.279 13.082 64.059 13.514C64.839 13.934 65.451 14.534 65.895 15.314C66.351 16.094 66.579 16.994 66.579 18.014C66.579 19.034 66.345 19.934 65.877 20.714C65.421 21.494 64.797 22.1 64.005 22.532C63.225 22.952 62.349 23.162 61.377 23.162ZM61.377 20.966C61.833 20.966 62.259 20.858 62.655 20.642C63.063 20.414 63.387 20.078 63.627 19.634C63.867 19.19 63.987 18.65 63.987 18.014C63.987 17.066 63.735 16.34 63.231 15.836C62.739 15.32 62.133 15.062 61.413 15.062C60.693 15.062 60.087 15.32 59.595 15.836C59.115 16.34 58.875 17.066 58.875 18.014C58.875 18.962 59.109 19.694 59.577 20.21C60.057 20.714 60.657 20.966 61.377 20.966ZM67.7795 17.978C67.7795 16.97 67.9775 16.076 68.3735 15.296C68.7815 14.516 69.3335 13.916 70.0295 13.496C70.7255 13.076 71.4995 12.866 72.3515 12.866C72.9995 12.866 73.6175 13.01 74.2055 13.298C74.7935 13.574 75.2615 13.946 75.6095 14.414V9.68H78.1655V23H75.6095V21.524C75.2975 22.016 74.8595 22.412 74.2955 22.712C73.7315 23.012 73.0775 23.162 72.3335 23.162C71.4935 23.162 70.7255 22.946 70.0295 22.514C69.3335 22.082 68.7815 21.476 68.3735 20.696C67.9775 19.904 67.7795 18.998 67.7795 17.978ZM75.6275 18.014C75.6275 17.402 75.5075 16.88 75.2675 16.448C75.0275 16.004 74.7035 15.668 74.2955 15.44C73.8875 15.2 73.4495 15.08 72.9815 15.08C72.5135 15.08 72.0815 15.194 71.6855 15.422C71.2895 15.65 70.9655 15.986 70.7135 16.43C70.4735 16.862 70.3535 17.378 70.3535 17.978C70.3535 18.578 70.4735 19.106 70.7135 19.562C70.9655 20.006 71.2895 20.348 71.6855 20.588C72.0935 20.828 72.5255 20.948 72.9815 20.948C73.4495 20.948 73.8875 20.834 74.2955 20.606C74.7035 20.366 75.0275 20.03 75.2675 19.598C75.5075 19.154 75.6275 18.626 75.6275 18.014ZM90.0408 13.028V23H87.5028V21.74C87.1788 22.172 86.7528 22.514 86.2248 22.766C85.7088 23.006 85.1448 23.126 84.5328 23.126C83.7528 23.126 83.0628 22.964 82.4628 22.64C81.8628 22.304 81.3888 21.818 81.0408 21.182C80.7048 20.534 80.5368 19.766 80.5368 18.878V13.028H83.0568V18.518C83.0568 19.31 83.2548 19.922 83.6508 20.354C84.0468 20.774 84.5868 20.984 85.2708 20.984C85.9668 20.984 86.5128 20.774 86.9088 20.354C87.3048 19.922 87.5028 19.31 87.5028 18.518V13.028H90.0408ZM96.3432 23.162C95.5272 23.162 94.7952 23.018 94.1472 22.73C93.4992 22.43 92.9832 22.028 92.5992 21.524C92.2272 21.02 92.0232 20.462 91.9872 19.85H94.5252C94.5732 20.234 94.7592 20.552 95.0832 20.804C95.4192 21.056 95.8332 21.182 96.3252 21.182C96.8052 21.182 97.1772 21.086 97.4412 20.894C97.7172 20.702 97.8552 20.456 97.8552 20.156C97.8552 19.832 97.6872 19.592 97.3512 19.436C97.0272 19.268 96.5052 19.088 95.7852 18.896C95.0412 18.716 94.4292 18.53 93.9492 18.338C93.4812 18.146 93.0732 17.852 92.7252 17.456C92.3892 17.06 92.2212 16.526 92.2212 15.854C92.2212 15.302 92.3772 14.798 92.6892 14.342C93.0132 13.886 93.4692 13.526 94.0572 13.262C94.6572 12.998 95.3592 12.866 96.1632 12.866C97.3512 12.866 98.2992 13.166 99.0072 13.766C99.7152 14.354 100.105 15.152 100.177 16.16H97.7652C97.7292 15.764 97.5612 15.452 97.2612 15.224C96.9732 14.984 96.5832 14.864 96.0912 14.864C95.6352 14.864 95.2812 14.948 95.0292 15.116C94.7892 15.284 94.6692 15.518 94.6692 15.818C94.6692 16.154 94.8372 16.412 95.1732 16.592C95.5092 16.76 96.0312 16.934 96.7392 17.114C97.4592 17.294 98.0532 17.48 98.5212 17.672C98.9892 17.864 99.3912 18.164 99.7272 18.572C100.075 18.968 100.255 19.496 100.267 20.156C100.267 20.732 100.105 21.248 99.7812 21.704C99.4692 22.16 99.0132 22.52 98.4132 22.784C97.8252 23.036 97.1352 23.162 96.3432 23.162Z" fill="white"/>
<path d="M104.856 10.436V23H102.336V10.436H104.856ZM112.872 12.884C114.06 12.884 115.02 13.262 115.752 14.018C116.484 14.762 116.85 15.806 116.85 17.15V23H114.33V17.492C114.33 16.7 114.132 16.094 113.736 15.674C113.34 15.242 112.8 15.026 112.116 15.026C111.42 15.026 110.868 15.242 110.46 15.674C110.064 16.094 109.866 16.7 109.866 17.492V23H107.346V13.028H109.866V14.27C110.202 13.838 110.628 13.502 111.144 13.262C111.672 13.01 112.248 12.884 112.872 12.884ZM123.404 20.678L125.924 13.028H128.606L124.916 23H121.856L118.184 13.028H120.884L123.404 20.678ZM139.291 17.798C139.291 18.158 139.267 18.482 139.219 18.77H131.929C131.989 19.49 132.241 20.054 132.685 20.462C133.129 20.87 133.675 21.074 134.323 21.074C135.259 21.074 135.925 20.672 136.321 19.868H139.039C138.751 20.828 138.199 21.62 137.383 22.244C136.567 22.856 135.565 23.162 134.377 23.162C133.417 23.162 132.553 22.952 131.785 22.532C131.029 22.1 130.435 21.494 130.003 20.714C129.583 19.934 129.373 19.034 129.373 18.014C129.373 16.982 129.583 16.076 130.003 15.296C130.423 14.516 131.011 13.916 131.767 13.496C132.523 13.076 133.393 12.866 134.377 12.866C135.325 12.866 136.171 13.07 136.915 13.478C137.671 13.886 138.253 14.468 138.661 15.224C139.081 15.968 139.291 16.826 139.291 17.798ZM136.681 17.078C136.669 16.43 136.435 15.914 135.979 15.53C135.523 15.134 134.965 14.936 134.305 14.936C133.681 14.936 133.153 15.128 132.721 15.512C132.301 15.884 132.043 16.406 131.947 17.078H136.681ZM144.947 23.162C144.131 23.162 143.399 23.018 142.751 22.73C142.103 22.43 141.587 22.028 141.203 21.524C140.831 21.02 140.627 20.462 140.591 19.85H143.129C143.177 20.234 143.363 20.552 143.687 20.804C144.023 21.056 144.437 21.182 144.929 21.182C145.409 21.182 145.781 21.086 146.045 20.894C146.321 20.702 146.459 20.456 146.459 20.156C146.459 19.832 146.291 19.592 145.955 19.436C145.631 19.268 145.109 19.088 144.389 18.896C143.645 18.716 143.033 18.53 142.553 18.338C142.085 18.146 141.677 17.852 141.329 17.456C140.993 17.06 140.825 16.526 140.825 15.854C140.825 15.302 140.981 14.798 141.293 14.342C141.617 13.886 142.073 13.526 142.661 13.262C143.261 12.998 143.963 12.866 144.767 12.866C145.955 12.866 146.903 13.166 147.611 13.766C148.319 14.354 148.709 15.152 148.781 16.16H146.369C146.333 15.764 146.165 15.452 145.865 15.224C145.577 14.984 145.187 14.864 144.695 14.864C144.239 14.864 143.885 14.948 143.633 15.116C143.393 15.284 143.273 15.518 143.273 15.818C143.273 16.154 143.441 16.412 143.777 16.592C144.113 16.76 144.635 16.934 145.343 17.114C146.063 17.294 146.657 17.48 147.125 17.672C147.593 17.864 147.995 18.164 148.331 18.572C148.679 18.968 148.859 19.496 148.871 20.156C148.871 20.732 148.709 21.248 148.385 21.704C148.073 22.16 147.617 22.52 147.017 22.784C146.429 23.036 145.739 23.162 144.947 23.162ZM153.873 15.098V19.922C153.873 20.258 153.951 20.504 154.107 20.66C154.275 20.804 154.551 20.876 154.935 20.876H156.105V23H154.521C152.397 23 151.335 21.968 151.335 19.904V15.098H150.147V13.028H151.335V10.562H153.873V13.028H156.105V15.098H153.873ZM170.302 12.884C171.526 12.884 172.51 13.262 173.254 14.018C174.01 14.762 174.388 15.806 174.388 17.15V23H171.868V17.492C171.868 16.712 171.67 16.118 171.274 15.71C170.878 15.29 170.338 15.08 169.654 15.08C168.97 15.08 168.424 15.29 168.016 15.71C167.62 16.118 167.422 16.712 167.422 17.492V23H164.902V17.492C164.902 16.712 164.704 16.118 164.308 15.71C163.912 15.29 163.372 15.08 162.688 15.08C161.992 15.08 161.44 15.29 161.032 15.71C160.636 16.118 160.438 16.712 160.438 17.492V23H157.918V13.028H160.438V14.234C160.762 13.814 161.176 13.484 161.68 13.244C162.196 13.004 162.76 12.884 163.372 12.884C164.152 12.884 164.848 13.052 165.46 13.388C166.072 13.712 166.546 14.18 166.882 14.792C167.206 14.216 167.674 13.754 168.286 13.406C168.91 13.058 169.582 12.884 170.302 12.884ZM186.049 17.798C186.049 18.158 186.025 18.482 185.977 18.77H178.687C178.747 19.49 178.999 20.054 179.443 20.462C179.887 20.87 180.433 21.074 181.081 21.074C182.017 21.074 182.683 20.672 183.079 19.868H185.797C185.509 20.828 184.957 21.62 184.141 22.244C183.325 22.856 182.323 23.162 181.135 23.162C180.175 23.162 179.311 22.952 178.543 22.532C177.787 22.1 177.193 21.494 176.761 20.714C176.341 19.934 176.131 19.034 176.131 18.014C176.131 16.982 176.341 16.076 176.761 15.296C177.181 14.516 177.769 13.916 178.525 13.496C179.281 13.076 180.151 12.866 181.135 12.866C182.083 12.866 182.929 13.07 183.673 13.478C184.429 13.886 185.011 14.468 185.419 15.224C185.839 15.968 186.049 16.826 186.049 17.798ZM183.439 17.078C183.427 16.43 183.193 15.914 182.737 15.53C182.281 15.134 181.723 14.936 181.063 14.936C180.439 14.936 179.911 15.128 179.479 15.512C179.059 15.884 178.801 16.406 178.705 17.078H183.439ZM193.414 12.884C194.602 12.884 195.562 13.262 196.294 14.018C197.026 14.762 197.392 15.806 197.392 17.15V23H194.872V17.492C194.872 16.7 194.674 16.094 194.278 15.674C193.882 15.242 193.342 15.026 192.658 15.026C191.962 15.026 191.41 15.242 191.002 15.674C190.606 16.094 190.408 16.7 190.408 17.492V23H187.888V13.028H190.408V14.27C190.744 13.838 191.17 13.502 191.686 13.262C192.214 13.01 192.79 12.884 193.414 12.884ZM202.723 15.098V19.922C202.723 20.258 202.801 20.504 202.957 20.66C203.125 20.804 203.401 20.876 203.785 20.876H204.955V23H203.371C201.247 23 200.185 21.968 200.185 19.904V15.098H198.997V13.028H200.185V10.562H202.723V13.028H204.955V15.098H202.723ZM210.583 23.162C209.767 23.162 209.035 23.018 208.387 22.73C207.739 22.43 207.223 22.028 206.839 21.524C206.467 21.02 206.263 20.462 206.227 19.85H208.765C208.813 20.234 208.999 20.552 209.323 20.804C209.659 21.056 210.073 21.182 210.565 21.182C211.045 21.182 211.417 21.086 211.681 20.894C211.957 20.702 212.095 20.456 212.095 20.156C212.095 19.832 211.927 19.592 211.591 19.436C211.267 19.268 210.745 19.088 210.025 18.896C209.281 18.716 208.669 18.53 208.189 18.338C207.721 18.146 207.313 17.852 206.965 17.456C206.629 17.06 206.461 16.526 206.461 15.854C206.461 15.302 206.617 14.798 206.929 14.342C207.253 13.886 207.709 13.526 208.297 13.262C208.897 12.998 209.599 12.866 210.403 12.866C211.591 12.866 212.539 13.166 213.247 13.766C213.955 14.354 214.345 15.152 214.417 16.16H212.005C211.969 15.764 211.801 15.452 211.501 15.224C211.213 14.984 210.823 14.864 210.331 14.864C209.875 14.864 209.521 14.948 209.269 15.116C209.029 15.284 208.909 15.518 208.909 15.818C208.909 16.154 209.077 16.412 209.413 16.592C209.749 16.76 210.271 16.934 210.979 17.114C211.699 17.294 212.293 17.48 212.761 17.672C213.229 17.864 213.631 18.164 213.967 18.572C214.315 18.968 214.495 19.496 214.507 20.156C214.507 20.732 214.345 21.248 214.021 21.704C213.709 22.16 213.253 22.52 212.653 22.784C212.065 23.036 211.375 23.162 210.583 23.162Z" fill="#5CE1E6"/>
</svg>
